# xmcd CD database file
#
# Track frame offsets:
#	150
#	15500
#	30262
#	48705
#	61715
#	91307
#	105672
#	123270
#	134900
#	151892
#	170400
#
# Disc length: 2572 seconds
#
# Revision: 0
# Processed by: cddbd v1.5.1PL0 Copyright (c) Steve Scherf et al.
# Submitted via: CDex 1.51
#
DISCID=850a0a0b
DTITLE=はっぴいえんど - はっぴいえんどLIVE ON STAGE
DYEAR=1989
DGENRE=Rock
TTITLE0=12月の雨の日
TTITLE1=春らんまん
TTITLE2=空いろのくれよん
TTITLE3=ももんが(暗闇坂むささび変化)
TTITLE4=かくれんぼ
TTITLE5=いらいら
TTITLE6=しんしんしん
TTITLE7=抱きしめたい
TTITLE8=朝
TTITLE9=はいからはくち
TTITLE10=春よ来い(アンコール)
EXTD=YEAR: 1989
EXTT0=
EXTT1=
EXTT2=
EXTT3=
EXTT4=
EXTT5=
EXTT6=
EXTT7=
EXTT8=
EXTT9=
EXTT10=
PLAYORDER=
